<?xml version="1.0" encoding="utf-8"?>
<!-- Generator: Adobe Illustrator 27.9.0, SVG Export Plug-In . SVG Version: 6.00 Build 0)  -->
<svg version="1.1" id="Layer_1" xmlns="http://www.w3.org/2000/svg" xmlns:xlink="http://www.w3.org/1999/xlink" x="0px" y="0px"
	 viewBox="0 0 2200 1500" style="enable-background:new 0 0 2200 1500;" xml:space="preserve">
<style type="text/css">
	.st0{fill:url(#SVGID_1_);}
	.st1{fill:url(#SVGID_00000080917472998287430440000014456057013846595757_);}
	.st2{fill:#0A0A0A;}
	.st3{fill:url(#SVGID_00000174596268521444929720000006660110322777980298_);}
	.st4{fill:url(#SVGID_00000031203687250343266390000016898094990892977539_);}
	.st5{fill:url(#SVGID_00000106862047585757037400000000280847177046930875_);}
	.st6{fill:url(#SVGID_00000147217862880317546180000015914438316383375009_);}
	.st7{fill:url(#SVGID_00000145749917629510865120000003928422963881490570_);}
	.st8{fill:url(#SVGID_00000034774615849329726380000013990978598625777077_);}
	.st9{fill:url(#SVGID_00000035527939357549320080000007330473449078799528_);}
	.st10{fill:url(#SVGID_00000063627147240123009890000009290892837751008671_);}
	.st11{fill:url(#SVGID_00000161606817277115185910000004352003007129719703_);}
	.st12{fill:url(#SVGID_00000011006198625772421960000010566702286827973818_);}
	.st13{fill:url(#SVGID_00000144335230020959178390000014930729855814915475_);}
	.st14{fill:url(#SVGID_00000000922696997176231910000006726508624535358094_);}
	.st15{fill:url(#SVGID_00000183233652929454110990000004220449703536844691_);}
	.st16{fill:url(#SVGID_00000116224913759720400570000011517339774436886694_);}
	.st17{fill:url(#SVGID_00000130633223833023147580000004870037585245901480_);}
	.st18{fill:url(#SVGID_00000070823020807990969720000005913457866477998745_);}
	.st19{fill:url(#SVGID_00000016041546643351574620000007496395681152562332_);}
	.st20{fill:url(#SVGID_00000012471550410587421470000010686559750598752693_);}
	.st21{fill:url(#SVGID_00000009569339007607723480000002663658953410974884_);}
</style>
<g>
	<g>
		<linearGradient id="SVGID_1_" gradientUnits="userSpaceOnUse" x1="836.4975" y1="633.1581" x2="629.2115" y2="884.1833">
			<stop  offset="0" style="stop-color:#9B9B9B"/>
			<stop  offset="1" style="stop-color:#515151"/>
		</linearGradient>
		<polygon class="st0" points="710.2,633.8 769.8,633.8 836.9,750 769.8,866.2 710.2,866.2 777.2,750 		"/>
		
			<linearGradient id="SVGID_00000030451822949409412790000013585092832199961985_" gradientUnits="userSpaceOnUse" x1="778.6895" y1="585.4227" x2="571.4036" y2="836.4479">
			<stop  offset="0" style="stop-color:#9B9B9B"/>
			<stop  offset="1" style="stop-color:#515151"/>
		</linearGradient>
		<polygon style="fill:url(#SVGID_00000030451822949409412790000013585092832199961985_);" points="608,633.8 677.6,633.8 
			732.2,728.5 672.6,728.5 642.8,676.8 600.5,750 642.8,823.2 672.6,771.5 732.2,771.5 677.6,866.2 608,866.2 540.9,750 		"/>
	</g>
	<g>
		<g>
			<path class="st2" d="M967.2,759.7c-8.5,8.1-20.1,12.2-34.8,12.2c-16,0-28.9-5.3-38.6-15.9c-9.7-10.6-14.6-24.6-14.6-42
				c0-16.5,4.9-30.2,14.8-41.2c9.9-10.9,23-16.4,39.4-16.4c13.1,0,24.1,3.7,33,11.1c8.9,7.4,13.8,16.9,14.7,28.3h-23.7
				c-1.2-6.1-4-10.8-8.3-14.2s-9.7-5-16.2-5c-6.7,0-12.4,1.9-16.9,5.6c-4.6,3.8-7.8,8.4-9.7,13.8c-1.9,5.5-2.8,11.4-2.8,17.9
				c0,11.3,2.6,20.4,7.9,27.2c5.3,6.8,12.3,10.1,21.2,10.1c14.7,0,23.2-8.3,25.2-24.8h24C980.6,740.5,975.7,751.5,967.2,759.7z"/>
			<path class="st2" d="M1088.5,672.5c10,10.7,14.9,24.6,14.9,41.8c0,17.2-5,31.1-14.9,41.7c-10,10.6-23,15.9-39.2,15.9
				c-16.3,0-29.4-5.3-39.5-15.9c-10-10.6-15-24.5-15-41.7c0-17.4,5-31.4,14.9-42c10-10.6,23.2-15.9,39.7-15.9
				C1065.5,656.5,1078.5,661.8,1088.5,672.5z M1027.4,686.5c-5.4,6.8-8.1,15.9-8.1,27.4c0,11.9,2.7,21.1,8,27.8
				c5.4,6.7,12.7,10.1,22.1,10.2c9.2,0,16.4-3.4,21.7-10.2c5.3-6.8,7.9-16.1,7.9-27.8c0-11.6-2.7-20.7-8-27.5
				c-5.4-6.8-12.6-10.1-21.8-10.1C1040,676.3,1032.8,679.7,1027.4,686.5z"/>
			<path class="st2" d="M1199.5,769.3h-78V659.1h24.1v89.4h53.8V769.3z"/>
			<path class="st2" d="M1297.4,678.9h-58.6v24h53.8v19h-53.8V749h59.7v20.3h-83.7V659.1h82.6V678.9z"/>
			<path class="st2" d="M1316.6,659.1h34.5l25.7,75.7l25.1-75.7h33.7v110.2h-22.7V691l-27.1,78.3H1367l-27.4-77.5v77.5h-23.1V659.1z
				"/>
			<path class="st2" d="M1555.2,769.3h-25.4l-8.7-24.6h-41l-9,24.6h-24.8l41.9-110.3h24.9L1555.2,769.3z M1500.7,686l-14.7,41h29.2
				L1500.7,686z"/>
			<path class="st2" d="M1566,659.1h24.6l45.3,73.8v-73.8h23.2v110.2H1635l-45.6-74v74H1566V659.1z"/>
		</g>
		<g>
			
				<linearGradient id="SVGID_00000177447973474611547270000005275092655821474728_" gradientUnits="userSpaceOnUse" x1="1354.9735" y1="347.8769" x2="726.4548" y2="984.4022">
				<stop  offset="0" style="stop-color:#9B9B9B"/>
				<stop  offset="1" style="stop-color:#515151"/>
			</linearGradient>
			<path style="fill:url(#SVGID_00000177447973474611547270000005275092655821474728_);" d="M891.2,842.5h-7.5v-42.4h7.5V842.5z"/>
			
				<linearGradient id="SVGID_00000008849444448693162810000006066766719004536507_" gradientUnits="userSpaceOnUse" x1="1371.5891" y1="364.2834" x2="743.0704" y2="1000.8087">
				<stop  offset="0" style="stop-color:#9B9B9B"/>
				<stop  offset="1" style="stop-color:#515151"/>
			</linearGradient>
			<path style="fill:url(#SVGID_00000008849444448693162810000006066766719004536507_);" d="M937.5,842.5h-7.7l-19.8-31.2v31.2h-7
				v-42.4h7.8l19.5,31.2v-31.2h7.1V842.5z"/>
			
				<linearGradient id="SVGID_00000018228322107518527210000018409127045217922722_" gradientUnits="userSpaceOnUse" x1="1389.443" y1="381.9128" x2="760.9243" y2="1018.438">
				<stop  offset="0" style="stop-color:#9B9B9B"/>
				<stop  offset="1" style="stop-color:#515151"/>
			</linearGradient>
			<path style="fill:url(#SVGID_00000018228322107518527210000018409127045217922722_);" d="M979.5,806.6H966v35.9h-7.4v-35.9h-13.5
				v-6.4h34.4V806.6z"/>
			
				<linearGradient id="SVGID_00000106147644461731637370000001786469447071614094_" gradientUnits="userSpaceOnUse" x1="1413.3506" y1="405.5197" x2="784.8319" y2="1042.0449">
				<stop  offset="0" style="stop-color:#9B9B9B"/>
				<stop  offset="1" style="stop-color:#515151"/>
			</linearGradient>
			<path style="fill:url(#SVGID_00000106147644461731637370000001786469447071614094_);" d="M1017.8,806.4h-23.1v11.2h21.5v6h-21.5
				v12.5h23.5v6.4h-30.9v-42.4h30.5V806.4z"/>
			
				<linearGradient id="SVGID_00000096755191356901288850000001761245434518139304_" gradientUnits="userSpaceOnUse" x1="1437.749" y1="429.6111" x2="809.2303" y2="1066.1365">
				<stop  offset="0" style="stop-color:#9B9B9B"/>
				<stop  offset="1" style="stop-color:#515151"/>
			</linearGradient>
			<path style="fill:url(#SVGID_00000096755191356901288850000001761245434518139304_);" d="M1065,842.5h-4.8l-1.1-5.1
				c-3.4,4-7.8,6.1-13.2,6.1c-5.9,0-10.8-2-14.5-6.1c-3.7-4-5.6-9.3-5.6-15.8c0-6.4,1.9-11.7,5.6-16c3.7-4.3,8.8-6.4,15.1-6.4
				c4.6,0,8.6,1.3,12,3.9c3.4,2.6,5.4,6.1,5.9,10.5h-7.2c-0.4-2.5-1.6-4.5-3.5-6c-1.9-1.4-4.3-2.2-7.2-2.2c-4.1,0-7.3,1.4-9.6,4.3
				c-2.3,2.9-3.5,6.8-3.5,11.7c0,5,1.2,8.9,3.5,11.7c2.4,2.8,5.6,4.3,9.8,4.3c3.7,0,6.5-1.1,8.5-3.5c2-2.3,3-5.1,3-8.5h-11.4v-5.7
				h18.1V842.5z"/>
			
				<linearGradient id="SVGID_00000152976746586999297310000004669213416197240750_" gradientUnits="userSpaceOnUse" x1="1459.4813" y1="451.0701" x2="830.9626" y2="1087.5955">
				<stop  offset="0" style="stop-color:#9B9B9B"/>
				<stop  offset="1" style="stop-color:#515151"/>
			</linearGradient>
			<path style="fill:url(#SVGID_00000152976746586999297310000004669213416197240750_);" d="M1096,800.2c4.2,0,7.6,0.9,10.3,2.8
				c2.7,1.9,4,4.9,4,9c0,2.5-0.6,4.7-1.8,6.5c-1.2,1.8-3,3.1-5.2,3.9c1,0.2,1.9,0.6,2.7,1.1c0.8,0.5,1.3,1,1.8,1.5
				c0.4,0.6,0.8,1.3,1,2.1s0.5,1.6,0.6,2.3c0.1,0.7,0.2,1.5,0.3,2.6c0,0.3,0.1,0.8,0.1,1.6c0.1,0.8,0.1,1.3,0.1,1.6
				c0,0.3,0.1,0.7,0.1,1.3c0.1,0.6,0.1,1.1,0.1,1.3c0,0.3,0.1,0.6,0.2,1.1c0.1,0.5,0.2,0.9,0.3,1.1c0.1,0.3,0.2,0.6,0.3,0.9
				c0.1,0.3,0.3,0.6,0.4,0.9c0.2,0.2,0.3,0.5,0.5,0.7h-8c-0.1-0.2-0.2-0.3-0.3-0.6c-0.1-0.2-0.2-0.5-0.3-0.7
				c-0.1-0.3-0.1-0.5-0.2-0.7c0-0.2-0.1-0.5-0.1-0.9c-0.1-0.4-0.1-0.7-0.1-0.9l-0.1-1.1l-0.1-1.1c0-0.2,0-0.7-0.1-1.3
				c0-0.6-0.1-1-0.1-1.2c-0.2-3.5-0.9-5.8-2.2-7.1c-1.3-1.3-3.6-1.9-7.1-1.9h-9.9v17.5h-7.4v-42.4H1096z M1083.3,819.5h9.8
				c1.4,0,2.6-0.1,3.6-0.2c1-0.2,2-0.4,3-0.9c1-0.4,1.8-1.1,2.3-2.1c0.5-1,0.8-2.2,0.8-3.6c0-1.3-0.2-2.5-0.7-3.4
				c-0.5-0.9-1.2-1.6-2.1-2s-1.8-0.7-2.7-0.9c-0.9-0.2-2-0.2-3.3-0.2h-10.8V819.5z"/>
			
				<linearGradient id="SVGID_00000044178356355923719110000001784898237415453117_" gradientUnits="userSpaceOnUse" x1="1485.0618" y1="476.3288" x2="856.5431" y2="1112.8541">
				<stop  offset="0" style="stop-color:#9B9B9B"/>
				<stop  offset="1" style="stop-color:#515151"/>
			</linearGradient>
			<path style="fill:url(#SVGID_00000044178356355923719110000001784898237415453117_);" d="M1156.6,842.5h-8l-4-11.2h-16.8
				l-4.2,11.2h-7.7l16.4-42.4h7.9L1156.6,842.5z M1136.3,807.8l-6.6,17.8h12.9L1136.3,807.8z"/>
			
				<linearGradient id="SVGID_00000097472298859287897970000005525705599695734434_" gradientUnits="userSpaceOnUse" x1="1495.2335" y1="486.3726" x2="866.7148" y2="1122.8979">
				<stop  offset="0" style="stop-color:#9B9B9B"/>
				<stop  offset="1" style="stop-color:#515151"/>
			</linearGradient>
			<path style="fill:url(#SVGID_00000097472298859287897970000005525705599695734434_);" d="M1188.5,806.6H1175v35.9h-7.4v-35.9
				H1154v-6.4h34.4V806.6z"/>
			
				<linearGradient id="SVGID_00000157987609429044327040000002348345937132464777_" gradientUnits="userSpaceOnUse" x1="1519.142" y1="509.9803" x2="890.6233" y2="1146.5056">
				<stop  offset="0" style="stop-color:#9B9B9B"/>
				<stop  offset="1" style="stop-color:#515151"/>
			</linearGradient>
			<path style="fill:url(#SVGID_00000157987609429044327040000002348345937132464777_);" d="M1226.8,806.4h-23.1v11.2h21.5v6h-21.5
				v12.5h23.5v6.4h-30.9v-42.4h30.5V806.4z"/>
			
				<linearGradient id="SVGID_00000098185070838941941040000013262683595756307360_" gradientUnits="userSpaceOnUse" x1="1538.3358" y1="528.9327" x2="909.8171" y2="1165.4581">
				<stop  offset="0" style="stop-color:#9B9B9B"/>
				<stop  offset="1" style="stop-color:#515151"/>
			</linearGradient>
			<path style="fill:url(#SVGID_00000098185070838941941040000013262683595756307360_);" d="M1252.9,800.2c2.9,0,5.5,0.3,7.7,0.9
				c2.2,0.6,4.3,1.8,6.1,3.4c4.2,3.7,6.2,9.1,6.2,16.1c0,7.5-2,13.2-5.9,17.2c-1.7,1.7-3.6,3-5.7,3.7c-2,0.7-4.7,1-8.1,1h-16.5
				v-42.4H1252.9z M1244.2,836.3h8.7c4.6,0,7.9-1.3,9.8-4c1.9-2.7,2.9-6.4,2.9-11.2c0-4.6-1.1-8.1-3.2-10.7
				c-2.1-2.6-5.5-3.8-9.9-3.8h-8.3V836.3z"/>
			
				<linearGradient id="SVGID_00000092438294697258940720000006921094100016315069_" gradientUnits="userSpaceOnUse" x1="1572.7838" y1="562.9473" x2="944.2651" y2="1199.4727">
				<stop  offset="0" style="stop-color:#9B9B9B"/>
				<stop  offset="1" style="stop-color:#515151"/>
			</linearGradient>
			<path style="fill:url(#SVGID_00000092438294697258940720000006921094100016315069_);" d="M1325.6,812.6c-0.4-5-3.5-7.4-9.2-7.4
				c-2.5,0-4.5,0.5-6,1.6s-2.1,2.5-2.1,4.3c0,1.7,0.5,2.9,1.6,3.5c1.1,0.6,3.4,1.4,7,2.3c1,0.3,1.7,0.5,2.2,0.6
				c4.7,1.2,7.9,2.3,9.6,3.2c3.8,2,5.7,5.2,5.7,9.5c0,1.9-0.3,3.5-1,5.1c-0.6,1.5-1.5,2.8-2.6,3.8c-1.1,1-2.3,1.9-3.8,2.5
				c-1.5,0.7-3,1.2-4.6,1.5c-1.6,0.3-3.2,0.4-4.9,0.4c-5.3,0-9.6-1.3-12.9-3.8c-3.3-2.5-4.9-6.3-4.9-11.2h7.3c0,3.1,1,5.4,3,6.9
				c2,1.5,4.7,2.2,7.9,2.2c2.9,0,5.1-0.6,6.7-1.8c1.6-1.2,2.4-2.8,2.4-4.9c0-1.3-0.4-2.4-1.3-3.3c-0.9-0.9-1.8-1.5-2.8-1.8
				c-1-0.4-2.7-0.9-5.2-1.5c-0.3-0.1-0.5-0.1-0.7-0.2c-5.3-1.3-8.7-2.5-10.4-3.3c-3.5-1.8-5.3-4.5-5.5-8.3v-0.8c0-3.8,1.4-6.8,4.3-9
				c2.8-2.2,6.6-3.4,11.4-3.4c4.6,0,8.3,1.1,11.2,3.3c2.9,2.2,4.4,5.5,4.6,10.1H1325.6z"/>
			
				<linearGradient id="SVGID_00000011017411444819234870000015615268297199905921_" gradientUnits="userSpaceOnUse" x1="1595.1925" y1="585.0742" x2="966.6738" y2="1221.5995">
				<stop  offset="0" style="stop-color:#9B9B9B"/>
				<stop  offset="1" style="stop-color:#515151"/>
			</linearGradient>
			<path style="fill:url(#SVGID_00000011017411444819234870000015615268297199905921_);" d="M1376.7,805.3c3.7,4.1,5.6,9.4,5.6,16
				c0,6.6-1.9,11.9-5.7,16c-3.8,4.1-8.7,6.2-14.7,6.2c-6.1,0-11-2-14.7-6.1c-3.7-4.1-5.6-9.4-5.6-16.1c0-6.4,1.8-11.7,5.5-15.9
				c3.7-4.2,8.7-6.3,15-6.3C1368,799.1,1372.9,801.2,1376.7,805.3z M1352.6,809.7c-2.3,2.9-3.5,6.7-3.5,11.5c0,4.9,1.2,8.8,3.5,11.7
				c2.3,2.9,5.5,4.3,9.5,4.3c3.8,0,6.9-1.5,9.3-4.4c2.3-2.9,3.5-6.8,3.5-11.6c0-4.8-1.2-8.7-3.5-11.6c-2.3-2.9-5.4-4.3-9.4-4.3
				C1358,805.4,1354.9,806.8,1352.6,809.7z"/>
			
				<linearGradient id="SVGID_00000090288294801275458340000009427586186672051848_" gradientUnits="userSpaceOnUse" x1="1617.7461" y1="607.3441" x2="989.2274" y2="1243.8695">
				<stop  offset="0" style="stop-color:#9B9B9B"/>
				<stop  offset="1" style="stop-color:#515151"/>
			</linearGradient>
			<path style="fill:url(#SVGID_00000090288294801275458340000009427586186672051848_);" d="M1421,842.5h-29v-42.4h7.5v35.9h21.5
				V842.5z"/>
			
				<linearGradient id="SVGID_00000110448804369760363890000011531964561574224062_" gradientUnits="userSpaceOnUse" x1="1635.8641" y1="625.2681" x2="1007.3455" y2="1261.7933">
				<stop  offset="0" style="stop-color:#9B9B9B"/>
				<stop  offset="1" style="stop-color:#515151"/>
			</linearGradient>
			<path style="fill:url(#SVGID_00000110448804369760363890000011531964561574224062_);" d="M1463.5,826.1
				c0,11.5-5.7,17.3-17.3,17.3c-6,0-10.4-1.4-13.2-4.3c-2.8-2.9-4.3-7.2-4.3-13.1v-25.8h7.4v27.3c0,6.5,3.4,9.8,10.2,9.8
				c2.1,0,3.8-0.3,5.1-0.8c1.3-0.6,2.3-1.4,2.9-2.6c0.6-1.2,1.1-2.4,1.3-3.7c0.2-1.3,0.4-3,0.4-5v-25h7.4V826.1z"/>
			
				<linearGradient id="SVGID_00000067936475344990677810000013196453436529678750_" gradientUnits="userSpaceOnUse" x1="1655.7419" y1="644.8619" x2="1027.2231" y2="1281.3873">
				<stop  offset="0" style="stop-color:#9B9B9B"/>
				<stop  offset="1" style="stop-color:#515151"/>
			</linearGradient>
			<path style="fill:url(#SVGID_00000067936475344990677810000013196453436529678750_);" d="M1505.5,806.6H1492v35.9h-7.4v-35.9
				H1471v-6.4h34.4V806.6z"/>
			
				<linearGradient id="SVGID_00000067236211895499492330000016525407726095673986_" gradientUnits="userSpaceOnUse" x1="1673.7905" y1="662.6836" x2="1045.2719" y2="1299.2089">
				<stop  offset="0" style="stop-color:#9B9B9B"/>
				<stop  offset="1" style="stop-color:#515151"/>
			</linearGradient>
			<path style="fill:url(#SVGID_00000067236211895499492330000016525407726095673986_);" d="M1520.9,842.5h-7.5v-42.4h7.5V842.5z"/>
			
				<linearGradient id="SVGID_00000143580791171921416720000015633360753002717610_" gradientUnits="userSpaceOnUse" x1="1690.9193" y1="679.5969" x2="1062.4006" y2="1316.1222">
				<stop  offset="0" style="stop-color:#9B9B9B"/>
				<stop  offset="1" style="stop-color:#515151"/>
			</linearGradient>
			<path style="fill:url(#SVGID_00000143580791171921416720000015633360753002717610_);" d="M1565.7,805.3c3.7,4.1,5.6,9.4,5.6,16
				c0,6.6-1.9,11.9-5.7,16c-3.8,4.1-8.7,6.2-14.7,6.2c-6.1,0-11-2-14.7-6.1c-3.7-4.1-5.6-9.4-5.6-16.1c0-6.4,1.8-11.7,5.5-15.9
				c3.7-4.2,8.7-6.3,15-6.3C1557.1,799.1,1562,801.2,1565.7,805.3z M1541.7,809.7c-2.3,2.9-3.5,6.7-3.5,11.5c0,4.9,1.2,8.8,3.5,11.7
				c2.3,2.9,5.5,4.3,9.5,4.3c3.8,0,6.9-1.5,9.3-4.4c2.3-2.9,3.5-6.8,3.5-11.6c0-4.8-1.2-8.7-3.5-11.6c-2.3-2.9-5.4-4.3-9.4-4.3
				C1547.1,805.4,1544,806.8,1541.7,809.7z"/>
			
				<linearGradient id="SVGID_00000057846362023895729750000006279008368897698709_" gradientUnits="userSpaceOnUse" x1="1714.8127" y1="703.1898" x2="1086.2941" y2="1339.7151">
				<stop  offset="0" style="stop-color:#9B9B9B"/>
				<stop  offset="1" style="stop-color:#515151"/>
			</linearGradient>
			<path style="fill:url(#SVGID_00000057846362023895729750000006279008368897698709_);" d="M1615.4,842.5h-7.7l-19.8-31.2v31.2h-7
				v-42.4h7.8l19.5,31.2v-31.2h7.1V842.5z"/>
			
				<linearGradient id="SVGID_00000064311775990316339250000007210668379128402845_" gradientUnits="userSpaceOnUse" x1="1737.2092" y1="725.3046" x2="1108.6904" y2="1361.8298">
				<stop  offset="0" style="stop-color:#9B9B9B"/>
				<stop  offset="1" style="stop-color:#515151"/>
			</linearGradient>
			<path style="fill:url(#SVGID_00000064311775990316339250000007210668379128402845_);" d="M1650.4,812.6c-0.4-5-3.5-7.4-9.2-7.4
				c-2.5,0-4.5,0.5-6,1.6c-1.4,1.1-2.1,2.5-2.1,4.3c0,1.7,0.5,2.9,1.6,3.5c1.1,0.6,3.4,1.4,7,2.3c1,0.3,1.7,0.5,2.2,0.6
				c4.7,1.2,7.9,2.3,9.6,3.2c3.8,2,5.7,5.2,5.7,9.5c0,1.9-0.3,3.5-1,5.1c-0.6,1.5-1.5,2.8-2.6,3.8c-1.1,1-2.3,1.9-3.8,2.5
				c-1.5,0.7-3,1.2-4.6,1.5c-1.6,0.3-3.2,0.4-4.9,0.4c-5.3,0-9.6-1.3-12.9-3.8c-3.3-2.5-4.9-6.3-4.9-11.2h7.3c0,3.1,1,5.4,3,6.9
				c2,1.5,4.7,2.2,7.9,2.2c2.9,0,5.1-0.6,6.7-1.8c1.6-1.2,2.4-2.8,2.4-4.9c0-1.3-0.4-2.4-1.3-3.3c-0.9-0.9-1.8-1.5-2.8-1.8
				s-2.7-0.9-5.2-1.5c-0.3-0.1-0.5-0.1-0.7-0.2c-5.3-1.3-8.7-2.5-10.4-3.3c-3.5-1.8-5.3-4.5-5.5-8.3v-0.8c0-3.8,1.4-6.8,4.3-9
				c2.8-2.2,6.6-3.4,11.4-3.4c4.6,0,8.3,1.1,11.2,3.3c2.9,2.2,4.4,5.5,4.6,10.1H1650.4z"/>
		</g>
	</g>
</g>
</svg>
